<svg aria-hidden="true" style="position:absolute;width:0;height:0;overflow:hidden"
    xmlns="http://www.w3.org/2000/svg">
    <defs>

        <symbol id="icon-mobile-menu-open" viewBox="0 0 64 32">
            <path fill="none" stroke="#7e847f" style="stroke: var(--color1, #7e847f)"
                stroke-linejoin="round" stroke-linecap="round" stroke-miterlimit="4"
                stroke-width="4" d="M56 20.666h-48M56 10h-48"></path>
        </symbol>
        <symbol id="icon-right-arrow" viewBox="0 0 32 32">
            <path stroke-linejoin="round" stroke-linecap="round" stroke-width="2.6"
                d="m15 28 13-13m0 0L15 2m13 13H2" />
        </symbol>
        <symbol id="icon-dumbbell" viewBox="0 0 32 32">
            <path
                d="M7.36 9.143H5.44c-.532 0-.96.459-.96 1.029v4.457h-.96c-.176 0-.32.154-.32.343v2.057c0 .188.144.343.32.343h.96v4.457c0 .57.428 1.028.96 1.028h1.92c.532 0 .96-.459.96-1.028V10.172c0-.57-.428-1.029-.96-1.029zm21.12 5.486h-.96v-4.457c0-.57-.428-1.029-.96-1.029h-1.92c-.532 0-.96.459-.96 1.029v11.657c0 .57.428 1.028.96 1.028h1.92c.532 0 .96-.459.96-1.028v-4.457h.96c.176 0 .32-.154.32-.343v-2.057c0-.189-.144-.343-.32-.343zM21.44 6.4h-1.92c-.532 0-.96.459-.96 1.029v7.2h-5.12v-7.2c0-.57-.428-1.029-.96-1.029h-1.92c-.532 0-.96.459-.96 1.029v17.143c0 .57.428 1.029.96 1.029h1.92c.532 0 .96-.459.96-1.029v-7.2h5.12v7.2c0 .57.428 1.029.96 1.029h1.92c.532 0 .96-.459.96-1.029V7.429c0-.57-.428-1.029-.96-1.029z" />
        </symbol>
        <symbol id="icon-facebook" viewBox="0 0 32 32">
            <path
                d="M19.52 4.64h.96v3.6h-1.2c-.48 0-.96 0-1.2.24s-.24.48-.24 1.04v1.28h2.64v3.04h-2.64v13.2h-4.08V13.76H11.6v-3.04h2.16V9.68c0-1.76.24-3.04.72-3.6.72-1.04 2.16-1.52 4.32-1.52.24.08.48.08.72.08z" />
        </symbol>
        <symbol id="icon-youtube" viewBox="0 0 32 32">
            <path
                d="M24.24 6c-1.36-.08-4.16-.16-8.4-.16h-.56c-4.08 0-6.8.08-8.16.24-1.84.16-3.12.64-3.84 1.28-.64.56-1.12 1.6-1.28 2.96-.08.88-.16 2.72-.16 5.52v.4c0 2.64.08 4.48.24 5.36.24 1.28.64 2.24 1.44 2.8.8.64 2.16 1.04 4.08 1.2 1.36.08 4.16.16 8.4.16h.56c4.08 0 6.8-.08 8.16-.24 1.84-.16 3.12-.64 3.84-1.28.64-.56 1.12-1.6 1.28-2.96.08-.88.16-2.72.16-5.52v-.4c0-2.64-.08-4.48-.24-5.36-.24-1.28-.64-2.24-1.44-2.8-.8-.64-2.16-1.04-4.08-1.2zm-3.12 9.84-8.8 5.28V10.56l8.8 5.28z" />
        </symbol>
        <symbol id="icon-heart" viewBox="0 0 32 32">
            <path fill="none" stroke="#f6f6f6" style="stroke:var(--color2, #f6f6f6)"
                stroke-linejoin="round"
                stroke-linecap="round" stroke-width="2.4"
                d="M27.787 6.147a7.345 7.345 0 0 0-5.187-2.15 7.33 7.33 0 0 0-5.187 2.15L16 7.56l-1.413-1.413a7.333 7.333 0 0 0-10.374 0 7.333 7.333 0 0 0 0 10.374L16 28.308l11.787-11.787a7.345 7.345 0 0 0 2.15-5.187 7.33 7.33 0 0 0-2.15-5.187z" />
        </symbol>
        <symbol id="icon-runing-man" viewBox="0 0 32 32">
            <path fill="#f6f6f6" style="fill:var(--color2, #f6f6f6)" opacity=".1"
                d="M30.118 16c0 8.317-6.742 15.059-15.059 15.059S0 24.317 0 16 6.742.941 15.059.941 30.118 7.683 30.118 16z" />
            <path fill="#f6f6f6" style="fill:var(--color2, #f6f6f6)"
                d="M23.275 12.148a.725.725 0 0 0-1.003-.088l-1.976 1.622-.909-2.2a.658.658 0 0 0-.138-.213 1.912 1.912 0 0 0-.952-.951 1.971 1.971 0 0 0-.591-.154c-.044-.022-.083-.052-.134-.067l-3.477-.947a.734.734 0 0 0-.552.073.688.688 0 0 0-.433.396l-1.309 3.289a.694.694 0 0 0 .407.902.72.72 0 0 0 .922-.399l1.106-2.778 1.584.43c-.039.061-.08.118-.112.183l-2.03 4.299c-.029.063-.045.127-.066.193l-2.467 4.042-4.129 1.35a1.018 1.018 0 0 0-.221 1.441 1.07 1.07 0 0 0 1.474.217l4.225-1.422c.129-.092.223-.212.294-.341.053-.055.114-.099.154-.167l1.471-2.41 2.611 2.174-2.794 3.076a1.013 1.013 0 0 0 .09 1.453 1.072 1.072 0 0 0 1.489-.088l3.486-3.838c.109-.118.173-.255.217-.397.026-.078.026-.158.032-.239 0-.041.016-.077.013-.115a.999.999 0 0 0-.362-.749l-2.403-2.002c.173-.161.32-.353.427-.578l1.556-3.293.499 1.298a.656.656 0 0 0 .144.323.686.686 0 0 0 .273.187c.01.005.023.006.035.009a.689.689 0 0 0 .442.022l.003-.001c.022-.005.044-.001.066-.01a.708.708 0 0 0 .281-.2l2.835-2.352c.301-.248.174-.686-.079-.981zM19.689 10.472c1.098 0 1.987-.869 1.987-1.942s-.89-1.942-1.987-1.942c-1.098 0-1.987.869-1.987 1.942s.89 1.942 1.987 1.942z" />
        </symbol>
        <symbol id="icon-instagram" viewBox="0 0 32 32">
            <path
                d="M31.968 9.408c-.074-1.701-.349-2.869-.742-3.882a7.839 7.839 0 0 0-1.85-2.837l-.001-.001A7.906 7.906 0 0 0 26.597.861l-.054-.018C25.524.449 24.362.176 22.661.101 20.949.019 20.405 0 16.059 0c-4.344 0-4.888.019-6.595.094-1.699.074-2.869.349-3.88.742a7.847 7.847 0 0 0-2.839 1.85l-.001.001A7.9 7.9 0 0 0 .919 5.465l-.018.054C.506 6.538.232 7.7.157 9.401c-.082 1.712-.101 2.256-.101 6.602 0 4.344.019 4.888.094 6.595.075 1.701.35 2.869.744 3.882a7.915 7.915 0 0 0 1.849 2.837l.001.001c.8.813 1.77 1.443 2.832 1.843 1.019.395 2.182.67 3.882.744 1.707.075 2.251.094 6.595.094 4.346 0 4.89-.019 6.595-.094 1.701-.074 2.869-.349 3.882-.742a8.237 8.237 0 0 0 4.664-4.628l.019-.055c.394-1.019.669-2.182.744-3.882.075-1.707.093-2.251.093-6.595s-.006-4.888-.08-6.595zm-2.88 13.066c-.07 1.563-.333 2.406-.55 2.97a5.341 5.341 0 0 1-3.004 3.024l-.036.012c-.56.219-1.411.482-2.968.55-1.688.075-2.194.094-6.464.094-4.269 0-4.782-.019-6.464-.094-1.563-.069-2.406-.331-2.97-.55a4.953 4.953 0 0 1-1.836-1.192l-.001-.001a4.978 4.978 0 0 1-1.184-1.803L3.6 25.45c-.218-.563-.48-1.413-.549-2.97-.075-1.688-.094-2.195-.094-6.464 0-4.27.019-4.784.094-6.464.069-1.563.331-2.406.549-2.97a4.897 4.897 0 0 1 1.198-1.837l.002-.002a4.972 4.972 0 0 1 1.806-1.182l.034-.011c.56-.219 1.411-.48 2.968-.55 1.688-.074 2.195-.093 6.464-.093 4.275 0 4.782.019 6.464.093 1.563.069 2.406.331 2.97.55a4.91 4.91 0 0 1 1.837 1.194c.531.52.938 1.144 1.195 1.84.218.56.48 1.411.549 2.968.075 1.688.094 2.194.094 6.464 0 4.269-.019 4.768-.094 6.458z" />
            <path
                d="M16.059 7.782a8.223 8.223 0 0 0-8.219 8.221 8.223 8.223 0 0 0 16.442.008v-.009a8.223 8.223 0 0 0-8.221-8.221zm0 13.552a5.333 5.333 0 0 1 .001-10.666h.001a5.334 5.334 0 1 1 0 10.668zM26.525 7.458a1.92 1.92 0 0 1-3.84 0 1.92 1.92 0 0 1 3.84 0z" />
        </symbol>
        <symbol id="icon-inverted-commas" viewBox="0 0 32 32">
            <path fill="#f6f6f6" style="fill:var(--color2, #f6f6f6)"
                d="M8.201 17.468c1.546-.612 2.785-.452 3.719.481s1.21 2.421.831 4.462c-.292 1.517-.933 2.683-1.925 3.5-.962.788-2.085 1.181-3.369 1.181-1.75 0-2.96-.671-3.631-2.013-.671-1.371-.802-3.208-.394-5.512.233-1.254.613-2.523 1.137-3.806s1.225-2.596 2.1-3.937c.875-1.342 2.013-2.508 3.413-3.5s2.946-1.633 4.638-1.925l-.438 4.637c-1.429.292-2.698 1.035-3.806 2.231-1.108 1.167-1.867 2.567-2.275 4.2zm13.169 0c1.546-.612 2.785-.452 3.719.481s1.21 2.421.831 4.462c-.292 1.517-.933 2.683-1.925 3.5-.963.788-2.085 1.181-3.369 1.181-1.75 0-2.96-.671-3.631-2.013-.671-1.371-.802-3.208-.394-5.512.233-1.254.613-2.523 1.138-3.806s1.225-2.596 2.1-3.937 2.012-2.508 3.412-3.5a11.225 11.225 0 0 1 4.638-1.925l-.438 4.637c-1.429.292-2.698 1.035-3.806 2.231-1.108 1.167-1.867 2.567-2.275 4.2z" />
        </symbol>
        <symbol id="icon-search" viewBox="0 0 32 32">
            <path stroke-linejoin="round" stroke-linecap="round" stroke-width="2.667"
                d="M14.667 25.333c5.891 0 10.667-4.776 10.667-10.667S20.558 3.999 14.667 3.999 4 8.775 4 14.666s4.776 10.667 10.667 10.667zM28 28l-5.8-5.8" />
        </symbol>
        <symbol id="icon-trash" viewBox="0 0 32 32">
            <path stroke-linejoin="round" stroke-linecap="round" stroke-width="2.6"
                d="M21.333 8V6.933c0-1.493 0-2.24-.291-2.811a2.666 2.666 0 0 0-1.165-1.165c-.57-.291-1.317-.291-2.811-.291h-2.133c-1.493 0-2.24 0-2.811.291-.502.256-.91.664-1.165 1.165-.291.57-.291 1.317-.291 2.811V8m2.667 7.333V22m5.334-6.667V22M4 8h24m-2.667 0v14.933c0 2.24 0 3.36-.436 4.216a3.996 3.996 0 0 1-1.748 1.748c-.856.436-1.976.436-4.216.436h-5.867c-2.24 0-3.36 0-4.216-.436a3.996 3.996 0 0 1-1.748-1.748c-.436-.856-.436-1.976-.436-4.216V8" />
        </symbol>
        <symbol id="icon-close-modal" viewBox="0 0 32 32">
            <path stroke-linejoin="round" stroke-linecap="round" stroke-width="2.286"
                d="M22.666 9.333 9.333 22.666m0-13.333 13.333 13.333" />
        </symbol>

        <symbol id="icon-arrow-top-right" viewBox="0 0 31 32">
            <path fill="#f6f6f6" style="fill:var(--color1, #f6f6f6)"
                d="M16.413 7.652v17.019h-1.811V7.652l-8.509 8.509-1.28-1.28L15.508 4.186l10.695 10.695-1.28 1.28-8.509-8.509z" />
        </symbol>
        <symbol id="icon-star" viewBox="0 0 32 32">
            <path
                d="M14.203 4.672c0.566-1.741 3.028-1.741 3.594 0l1.597 4.914c0.253 0.779 0.978 1.306 1.797 1.306h5.167c1.83 0 2.591 2.342 1.111 3.418l-4.18 3.037c-0.662 0.481-0.939 1.334-0.686 2.113l1.597 4.914c0.566 1.741-1.427 3.188-2.908 2.113l-4.18-3.037c-0.662-0.481-1.559-0.481-2.221 0l-4.18 3.037c-1.481 1.076-3.473-0.372-2.908-2.113l1.597-4.914c0.253-0.779-0.024-1.631-0.686-2.113l-4.18-3.037c-1.481-1.076-0.72-3.418 1.111-3.418h5.167c0.819 0 1.544-0.527 1.797-1.306l1.597-4.914z">
            </path>
        </symbol>
        <symbol id="eye" viewBox="0 0 20 20">
            <path
                d="M0.833008 9.99998C0.833008 9.99998 4.16634 3.33331 9.99967 3.33331C15.833 3.33331 19.1663 9.99998 19.1663 9.99998C19.1663 9.99998 15.833 16.6666 9.99967 16.6666C4.16634 16.6666 0.833008 9.99998 0.833008 9.99998Z"
                stroke="#2F2F2F" stroke-width="1.8" stroke-linecap="round" stroke-linejoin="round"
                fill="none" />
            <path
                d="M10 12.5C11.3807 12.5 12.5 11.3807 12.5 10C12.5 8.61929 11.3807 7.5 10 7.5C8.61929 7.5 7.5 8.61929 7.5 10C7.5 11.3807 8.61929 12.5 10 12.5Z"
                stroke="#2F2F2F" stroke-width="1.8" fill="none" />
        </symbol>

        <symbol id="eyeOff" viewBox="0 0 20 20">
            <path
                d="M14.9497 14.9499C13.5252 16.0358 11.7906 16.6373 9.99968 16.6666C4.16634 16.6666 0.833008 9.99994 0.833008 9.99994C1.86958 8.06819 3.30729 6.38045 5.04967 5.04994M8.24968 3.53327C8.82329 3.39901 9.41056 3.33189 9.99968 3.33327C15.833 3.33327 19.1663 9.99994 19.1663 9.99994C18.6605 10.9463 18.0572 11.8372 17.3663 12.6583M11.7663 11.7666C11.5375 12.0122 11.2615 12.2092 10.9548 12.3459C10.6481 12.4825 10.3171 12.556 9.98142 12.5619C9.64574 12.5678 9.31231 12.5061 9.00102 12.3803C8.68972 12.2546 8.40694 12.0675 8.16955 11.8301C7.93215 11.5927 7.745 11.3099 7.61927 10.9986C7.49353 10.6873 7.43178 10.3539 7.4377 10.0182C7.44363 9.68252 7.5171 9.35148 7.65374 9.04481C7.79038 8.73815 7.98739 8.46215 8.23301 8.23327"
                stroke="#2F2F2F" stroke-width="1.8" stroke-linecap="round" stroke-linejoin="round"
                fill="none" />
            <path d="M0.833008 0.833374L19.1663 19.1667" stroke="#2F2F2F" stroke-width="1.8"
                stroke-linecap="round" stroke-linejoin="round" />
        </symbol>


        <symbol id="logOut" viewBox="0 0 16 16">
            <path
                d="M6 14H3.33333C2.97971 14 2.64057 13.8595 2.39052 13.6095C2.14048 13.3594 2 13.0203 2 12.6667V3.33333C2 2.97971 2.14048 2.64057 2.39052 2.39052C2.64057 2.14048 2.97971 2 3.33333 2H6"
                stroke-width="1.5" stroke-linecap="round" stroke-linejoin="round" fill="none" />
            <path d="M10.667 11.3334L14.0003 8.00002L10.667 4.66669" stroke-width="1.5"
                stroke-linecap="round" stroke-linejoin="round" fill="none" />
            <path d="M14 8H6" stroke-width="1.5" stroke-linecap="round" stroke-linejoin="round" />
        </symbol>

        <symbol id="pieChart" viewBox="0 0 24 24">
            <path
                d="M17.2 14C17.477 14 17.6155 14 17.7278 14.0615C17.8204 14.1122 17.9065 14.2075 17.9478 14.3047C17.9978 14.4225 17.9852 14.5479 17.96 14.7987C17.8296 16.0987 17.3822 17.3514 16.6518 18.4445C15.7727 19.7601 14.5233 20.7855 13.0615 21.391C11.5997 21.9965 9.99113 22.1549 8.43928 21.8463C6.88743 21.5376 5.46197 20.7756 4.34315 19.6568C3.22433 18.538 2.4624 17.1125 2.15372 15.5607C1.84504 14.0088 2.00347 12.4003 2.60897 10.9385C3.21447 9.4767 4.23985 8.22727 5.55544 7.34822C6.64856 6.61782 7.90125 6.17038 9.20131 6.03994C9.45207 6.01478 9.57745 6.0022 9.69528 6.05219C9.79249 6.09343 9.88776 6.17962 9.9385 6.27222C10 6.38448 10 6.52298 10 6.79998V13.2C10 13.48 10 13.62 10.0545 13.727C10.1024 13.8211 10.1789 13.8975 10.273 13.9455C10.38 14 10.52 14 10.8 14H17.2Z"
                stroke="#323F47" stroke-width="2" stroke-linecap="round" stroke-linejoin="round"
                fill="none" />
            <path
                d="M14 2.79999C14 2.52298 14 2.38448 14.0615 2.27223C14.1122 2.17963 14.2075 2.09344 14.3047 2.0522C14.4225 2.0022 14.5479 2.01478 14.7987 2.03993C16.6271 2.22333 18.346 3.03229 19.6569 4.34313C20.9677 5.65398 21.7767 7.37289 21.9601 9.20129C21.9852 9.45206 21.9978 9.57744 21.9478 9.69527C21.9066 9.79248 21.8204 9.88774 21.7278 9.93848C21.6155 9.99998 21.477 9.99999 21.2 9.99999L14.8 9.99999C14.52 9.99999 14.38 9.99999 14.273 9.94549C14.1789 9.89755 14.1024 9.82106 14.0545 9.72698C14 9.62003 14 9.48001 14 9.19999L14 2.79999Z"
                stroke="#9BE1A0" stroke-width="2" stroke-linecap="round" stroke-linejoin="round"
                fill="none" />
        </symbol>

        <symbol id="settings" viewBox="0 0 16 16">
            <path
                d="M8 10C9.10457 10 10 9.10457 10 8C10 6.89543 9.10457 6 8 6C6.89543 6 6 6.89543 6 8C6 9.10457 6.89543 10 8 10Z"
                stroke-width="1.5" stroke-linecap="round" stroke-linejoin="round" fill="none" />
            <path
                d="M12.9337 10C12.8449 10.2011 12.8184 10.4242 12.8577 10.6404C12.8969 10.8567 13 11.0562 13.1537 11.2134L13.1937 11.2534C13.3176 11.3772 13.416 11.5242 13.4831 11.6861C13.5502 11.848 13.5847 12.0215 13.5847 12.1967C13.5847 12.3719 13.5502 12.5454 13.4831 12.7073C13.416 12.8691 13.3176 13.0162 13.1937 13.14C13.0698 13.264 12.9228 13.3623 12.7609 13.4294C12.599 13.4965 12.4255 13.5311 12.2503 13.5311C12.0751 13.5311 11.9016 13.4965 11.7397 13.4294C11.5779 13.3623 11.4308 13.264 11.307 13.14L11.267 13.1C11.1099 12.9463 10.9103 12.8432 10.6941 12.804C10.4778 12.7648 10.2547 12.7913 10.0537 12.88C9.85648 12.9645 9.68832 13.1049 9.56986 13.2837C9.45141 13.4626 9.38785 13.6722 9.38699 13.8867V14C9.38699 14.3536 9.24652 14.6928 8.99647 14.9428C8.74642 15.1929 8.40728 15.3334 8.05366 15.3334C7.70004 15.3334 7.3609 15.1929 7.11085 14.9428C6.8608 14.6928 6.72033 14.3536 6.72033 14V13.94C6.71516 13.7194 6.64374 13.5054 6.51533 13.3258C6.38693 13.1463 6.20748 13.0095 6.00033 12.9334C5.79925 12.8446 5.5762 12.8181 5.35993 12.8574C5.14367 12.8966 4.94411 12.9997 4.78699 13.1534L4.74699 13.1934C4.62316 13.3173 4.47611 13.4157 4.31425 13.4828C4.15238 13.5499 3.97888 13.5844 3.80366 13.5844C3.62844 13.5844 3.45494 13.5499 3.29307 13.4828C3.13121 13.4157 2.98416 13.3173 2.86033 13.1934C2.73636 13.0695 2.63801 12.9225 2.57091 12.7606C2.50381 12.5987 2.46928 12.4252 2.46928 12.25C2.46928 12.0748 2.50381 11.9013 2.57091 11.7394C2.63801 11.5776 2.73636 11.4305 2.86033 11.3067L2.90033 11.2667C3.05402 11.1096 3.15712 10.91 3.19633 10.6937C3.23554 10.4775 3.20907 10.2544 3.12033 10.0534C3.03582 9.85618 2.8955 9.68801 2.71664 9.56956C2.53778 9.45111 2.32818 9.38754 2.11366 9.38669H2.00033C1.6467 9.38669 1.30757 9.24621 1.05752 8.99616C0.807468 8.74611 0.666992 8.40698 0.666992 8.05335C0.666992 7.69973 0.807468 7.36059 1.05752 7.11055C1.30757 6.8605 1.6467 6.72002 2.00033 6.72002H2.06033C2.28099 6.71486 2.495 6.64343 2.67453 6.51503C2.85405 6.38662 2.9908 6.20718 3.06699 6.00002C3.15574 5.79894 3.18221 5.57589 3.143 5.35963C3.10378 5.14337 3.00068 4.94381 2.84699 4.78669L2.80699 4.74669C2.68302 4.62286 2.58468 4.47581 2.51758 4.31394C2.45048 4.15208 2.41594 3.97857 2.41594 3.80335C2.41594 3.62813 2.45048 3.45463 2.51758 3.29277C2.58468 3.1309 2.68302 2.98385 2.80699 2.86002C2.93082 2.73605 3.07787 2.63771 3.23974 2.57061C3.4016 2.50351 3.57511 2.46897 3.75033 2.46897C3.92555 2.46897 4.09905 2.50351 4.26091 2.57061C4.42278 2.63771 4.56983 2.73605 4.69366 2.86002L4.73366 2.90002C4.89078 3.05371 5.09034 3.15681 5.3066 3.19602C5.52286 3.23524 5.74592 3.20876 5.94699 3.12002H6.00033C6.19751 3.03551 6.36567 2.89519 6.48412 2.71633C6.60257 2.53747 6.66614 2.32788 6.66699 2.11335V2.00002C6.66699 1.6464 6.80747 1.30726 7.05752 1.05721C7.30757 0.807163 7.6467 0.666687 8.00033 0.666687C8.35395 0.666687 8.69309 0.807163 8.94314 1.05721C9.19318 1.30726 9.33366 1.6464 9.33366 2.00002V2.06002C9.33452 2.27454 9.39808 2.48414 9.51653 2.663C9.63498 2.84186 9.80315 2.98218 10.0003 3.06669C10.2014 3.15543 10.4245 3.1819 10.6407 3.14269C10.857 3.10348 11.0565 3.00038 11.2137 2.84669L11.2537 2.80669C11.3775 2.68272 11.5245 2.58437 11.6864 2.51727C11.8483 2.45018 12.0218 2.41564 12.197 2.41564C12.3722 2.41564 12.5457 2.45018 12.7076 2.51727C12.8694 2.58437 13.0165 2.68272 13.1403 2.80669C13.2643 2.93052 13.3626 3.07757 13.4297 3.23943C13.4968 3.4013 13.5314 3.5748 13.5314 3.75002C13.5314 3.92524 13.4968 4.09874 13.4297 4.26061C13.3626 4.42247 13.2643 4.56952 13.1403 4.69335L13.1003 4.73335C12.9466 4.89047 12.8435 5.09003 12.8043 5.30629C12.7651 5.52256 12.7916 5.74561 12.8803 5.94669V6.00002C12.9648 6.1972 13.1052 6.36537 13.284 6.48382C13.4629 6.60227 13.6725 6.66583 13.887 6.66669H14.0003C14.3539 6.66669 14.6931 6.80716 14.9431 7.05721C15.1932 7.30726 15.3337 7.6464 15.3337 8.00002C15.3337 8.35364 15.1932 8.69278 14.9431 8.94283C14.6931 9.19288 14.3539 9.33335 14.0003 9.33335H13.9403C13.7258 9.33421 13.5162 9.39778 13.3374 9.51623C13.1585 9.63468 13.0182 9.80284 12.9337 10Z"
                stroke-width="1.5" stroke-linecap="round" stroke-linejoin="round" fill="none" />
        </symbol>

        <symbol id="trash" viewBox="0 0 16 16">
            <path d="M6 2H10" stroke="#323F47" stroke-width="1.5" stroke-linecap="round"
                stroke-linejoin="round" />
            <path
                d="M2 4H14M12.6667 4L12.1991 11.0129C12.129 12.065 12.0939 12.5911 11.8667 12.99C11.6666 13.3412 11.3648 13.6235 11.0011 13.7998C10.588 14 10.0607 14 9.00623 14H6.99377C5.93927 14 5.41202 14 4.99889 13.7998C4.63517 13.6235 4.33339 13.3412 4.13332 12.99C3.90607 12.5911 3.871 12.065 3.80086 11.0129L3.33333 4"
                stroke="#323F47" stroke-width="1.8" stroke-linecap="round" stroke-linejoin="round"
                fill="none" />
        </symbol>


        <symbol id="upload" viewBox="0 0 20 20">
            <path
                d="M17.5 12.5V15.8333C17.5 16.2754 17.3244 16.6993 17.0118 17.0118C16.6993 17.3244 16.2754 17.5 15.8333 17.5H4.16667C3.72464 17.5 3.30072 17.3244 2.98816 17.0118C2.67559 16.6993 2.5 16.2754 2.5 15.8333V12.5"
                stroke="#2F2F2F" stroke-width="1.8" stroke-linecap="round" stroke-linejoin="round"
                fill="none" />
            <path d="M14.1663 6.66667L9.99967 2.5L5.83301 6.66667" stroke="#2F2F2F"
                stroke-width="1.8" stroke-linecap="round" stroke-linejoin="round" fill="none" />
            <path d="M10 2.5V12.5" stroke="#2F2F2F" stroke-width="1.8" stroke-linecap="round"
                stroke-linejoin="round" />
        </symbol>

        <symbol id="x-close" viewBox="0 0 28 28">
            <path d="M21 7L7 21" stroke-width="3" stroke-linecap="round" stroke-linejoin="round" />
            <path d="M7 7L21 21" stroke-width="3" stroke-linecap="round" stroke-linejoin="round" />
        </symbol>

        <symbol id="edit" viewBox="0 0 16 16">
            <path
                d="M11.333 1.99998C11.5081 1.82488 11.716 1.68599 11.9447 1.59123C12.1735 1.49647 12.4187 1.44769 12.6663 1.44769C12.914 1.44769 13.1592 1.49647 13.3879 1.59123C13.6167 1.68599 13.8246 1.82488 13.9997 1.99998C14.1748 2.17507 14.3137 2.38294 14.4084 2.61172C14.5032 2.84049 14.552 3.08569 14.552 3.33331C14.552 3.58093 14.5032 3.82613 14.4084 4.05491C14.3137 4.28368 14.1748 4.49155 13.9997 4.66664L4.99967 13.6666L1.33301 14.6666L2.33301 11L11.333 1.99998Z"
                stroke="#323F47" stroke-width="1.8" stroke-linecap="round" stroke-linejoin="round"
                fill="none" />
        </symbol>

        <symbol id="icon-edit" viewBox="0 0 32 32">
            <path stroke-linejoin="round" stroke-linecap="round" stroke-miterlimit="4"
                stroke-width="3.6"
                d="M22.668 4c0.676-0.646 1.594-1.044 2.605-1.044 2.083 0 3.772 1.689 3.772 3.772 0 1.011-0.398 1.93-1.046 2.607l0.001-0.001-18 18-7.334 2 2-7.334 18-18z"></path>
        </symbol>

        <symbol id="icon-water-glass" viewBox="0 0 31 32">
            <path
                d="M26.955 5.226c-0.1-0.335-0.261-0.625-0.471-0.871l0.003 0.003c-0.21-0.246-0.467-0.446-0.759-0.584l-0.014-0.006c-0.293-0.142-0.613-0.213-0.937-0.21h-18.216c-0.031-0.002-0.068-0.003-0.105-0.003-0.304 0-0.59 0.074-0.842 0.205l0.010-0.005c-0.301 0.139-0.57 0.345-0.785 0.604-0.207 0.243-0.368 0.532-0.464 0.849l-0.004 0.017c-0.097 0.317-0.128 0.654-0.088 0.984l2.076 18.377c0.143 1.294 0.742 2.427 1.63 3.253l0.003 0.003c0.846 0.805 1.991 1.303 3.251 1.313h8.862c1.267-0.009 2.416-0.507 3.268-1.315l-0.002 0.002c0.878-0.836 1.47-1.965 1.618-3.231l0.002-0.025 1.126-10.33v-0.158l0.873-7.876c0.049-0.332 0.036-0.671-0.038-0.998zM14.17 25.375h-1.266c-0.861-0.053-1.63-0.403-2.217-0.948l0.002 0.002c-0.599-0.564-1.011-1.321-1.137-2.171l-0.002-0.020-0.304-2.258c-0.006-0.047-0.009-0.101-0.009-0.156 0-0.305 0.1-0.586 0.269-0.812l-0.003 0.004c0.204-0.274 0.504-0.455 0.835-0.503 0.053-0.008 0.114-0.013 0.176-0.013 0.287 0 0.552 0.097 0.762 0.261l-0.003-0.002c0.27 0.206 0.45 0.512 0.503 0.854l0.304 2.231c0.034 0.244 0.151 0.467 0.329 0.63 0.177 0.169 0.405 0.266 0.646 0.276h1.266c0.336 0 0.658 0.138 0.895 0.384s0.37 0.58 0.37 0.929-0.133 0.682-0.37 0.928c-0.226 0.236-0.543 0.383-0.895 0.384h-0.152zM24.297 13.259c-2.671 0.538-4.949 0.643-7.367-1.313-3-2.455-6.633-1.668-10.126-0.38l-0.633-5.566c-0.006-0.026-0.009-0.055-0.009-0.085s0.003-0.060 0.010-0.088l-0 0.003c0.018-0.057 0.048-0.105 0.088-0.144l0-0c0.030-0.048 0.073-0.084 0.125-0.105l0.002-0.001c0.050-0.014 0.102-0.014 0.151 0h18.381c0.049 0.029 0.091 0.064 0.126 0.105l0.001 0.001c0.036 0.039 0.063 0.088 0.075 0.142l0 0.002c0.009 0.027 0.014 0.059 0.014 0.092s-0.005 0.064-0.015 0.094l0.001-0.002-0.823 7.246z"></path>
        </symbol>

        <symbol id="icon-plus" viewBox="0 0 32 32">
            <path stroke-linejoin="round" stroke-linecap="round" stroke-miterlimit="4"
                stroke-width="2.6667" d="M16 6.667v18.667M6.667 16h18.667"></path>
        </symbol>

        <symbol id="icon-minus" viewBox="0 0 203 32">
            <path stroke-linejoin="round" stroke-linecap="round" stroke-miterlimit="4"
                stroke-width="19.2" d="M19.424 16h163.808"></path>
        </symbol>

        <symbol id="elipce" viewBox="0 0 12 12">
            <circle cx="6" cy="6" r="5.5" fill="white" stroke="#9BE1A0" />
        </symbol>

        <symbol id="icon-water-bottle-red" viewBox="0 0 32 32">
            <path fill="#f24a4a" style="fill: var(--color1, #f24a4a)"
                d="M27.942 9.965l-5.907-5.907 3.446-3.446c0.816-0.816 2.138-0.816 2.953 0l2.953 2.954c0.816 0.816 0.816 2.138 0 2.953l-3.446 3.446z"></path>
            <path fill="#f24a4a" style="fill: var(--color1, #f24a4a)"
                d="M31.388 3.565l-1.477-1.477-4.923 4.923 2.953 2.954 3.446-3.446c0.816-0.816 0.816-2.138 0-2.954z"></path>
            <path fill="#f24a4a" style="fill: var(--color1, #f24a4a)"
                d="M19.82 22.517l-10.337-10.337 4.922-4.922 10.337 10.337-4.922 4.922z"></path>
            <path fill="#f24a4a" style="fill: var(--color1, #f24a4a)"
                d="M19.574 12.426l5.169 5.169-4.922 4.922-5.169-5.169 4.922-4.922z"></path>
            <path fill="#f24a4a" style="fill: var(--color1, #f24a4a)"
                d="M16.128 27.686l-11.814-11.814 3.938-3.938c1.223-1.223 3.207-1.223 4.43 0l7.384 7.384c1.223 1.223 1.223 3.207 0 4.43l-3.938 3.938z"></path>
            <path fill="#f24a4a" style="fill: var(--color1, #f24a4a)"
                d="M20.066 19.317l-3.692-3.692-6.153 6.153 5.907 5.907 3.938-3.938c1.223-1.223 1.223-3.207-0-4.43z"></path>
            <path fill="#4da6ff" style="fill: var(--color2, #4da6ff)"
                d="M22.282 18.579l-8.861-8.861c-0.816-0.816-0.816-2.138 0-2.954l3.692-3.692c2.039-2.039 5.345-2.039 7.384 0l4.43 4.43c2.039 2.039 2.039 5.345 0 7.384l-3.692 3.692c-0.816 0.815-2.138 0.815-2.954-0z"></path>
            <path fill="#4596e6" style="fill: var(--color3, #4596e6)"
                d="M28.927 7.503l-2.215-2.215-8.861 8.861 4.43 4.43c0.816 0.816 2.138 0.816 2.953 0l3.692-3.692c2.039-2.039 2.039-5.345 0-7.384z"></path>
            <path fill="#4da6ff" style="fill: var(--color2, #4da6ff)"
                d="M8.301 31.082l-7.384-7.384c-1.223-1.223-1.223-3.207 0-4.43l4.135-4.135 11.814 11.814-4.135 4.135c-1.223 1.223-3.207 1.223-4.43 0z"></path>
            <path fill="#4596e6" style="fill: var(--color3, #4596e6)"
                d="M4.609 27.39l3.692 3.692c1.223 1.223 3.207 1.223 4.43 0l4.135-4.135-5.907-5.907-6.35 6.35z"></path>
        </symbol>

        <symbol id="icon-water-bottle-green" viewBox="0 0 32 32">
            <path fill="#e6eeff" style="fill: var(--color4, #e6eeff)"
                d="M27.942 9.965l-5.907-5.907 3.446-3.446c0.816-0.816 2.138-0.816 2.953 0l2.953 2.954c0.816 0.816 0.816 2.138 0 2.953l-3.446 3.446z"></path>
            <path fill="#dae2f2" style="fill: var(--color5, #dae2f2)"
                d="M31.388 3.565l-1.477-1.477-4.923 4.923 2.953 2.954 3.446-3.446c0.816-0.816 0.816-2.138 0-2.954z"></path>
            <path fill="#9be1a0" style="fill: var(--color6, #9be1a0)"
                d="M19.82 22.517l-10.337-10.337 4.922-4.922 10.337 10.337-4.922 4.922z"></path>
            <path fill="#87d28d" style="fill: var(--color7, #87d28d)"
                d="M19.574 12.426l5.169 5.169-4.922 4.922-5.169-5.169 4.922-4.922z"></path>
            <path fill="#9be1a0" style="fill: var(--color6, #9be1a0)"
                d="M16.128 27.686l-11.814-11.814 3.938-3.938c1.223-1.223 3.207-1.223 4.43 0l7.384 7.384c1.223 1.223 1.223 3.207 0 4.43l-3.938 3.938z"></path>
            <path fill="#87d28d" style="fill: var(--color7, #87d28d)"
                d="M20.066 19.317l-3.692-3.692-6.153 6.153 5.907 5.907 3.938-3.938c1.223-1.223 1.223-3.207-0-4.43z"></path>
            <path fill="#4da6ff" style="fill: var(--color2, #4da6ff)"
                d="M22.282 18.579l-8.861-8.861c-0.816-0.816-0.816-2.138 0-2.954l3.692-3.692c2.039-2.039 5.345-2.039 7.384 0l4.43 4.43c2.039 2.039 2.039 5.345 0 7.384l-3.692 3.692c-0.816 0.815-2.138 0.815-2.954-0z"></path>
            <path fill="#4596e6" style="fill: var(--color3, #4596e6)"
                d="M28.927 7.503l-2.215-2.215-8.861 8.861 4.43 4.43c0.816 0.816 2.138 0.816 2.953 0l3.692-3.692c2.039-2.039 2.039-5.345 0-7.384z"></path>
            <path fill="#4da6ff" style="fill: var(--color2, #4da6ff)"
                d="M8.301 31.082l-7.384-7.384c-1.223-1.223-1.223-3.207 0-4.43l4.135-4.135 11.814 11.814-4.135 4.135c-1.223 1.223-3.207 1.223-4.43 0z"></path>
            <path fill="#4596e6" style="fill: var(--color3, #4596e6)"
                d="M4.609 27.39l3.692 3.692c1.223 1.223 3.207 1.223 4.43 0l4.135-4.135-5.907-5.907-6.35 6.35z"></path>
        </symbol>
    </defs>
</svg>